<?xml version="1.0" encoding="UTF-8" standalone="no"?>
<svg
   width=""
   height=""
   viewBox="0 0 81.736397 94.288483"
   version="1.1"
   id="svg1"
   xml:space="preserve"
   xmlns="http://www.w3.org/2000/svg"
   xmlns:svg="http://www.w3.org/2000/svg">

  <g id="layer2"
     transform="translate(-97.543416,-9.4512383)"
     fill="currentColor">

    <path id="rect0" d="m 138.33155,103.73972 7.43883,-31.437877 -5.72884,-10.428303 -3.41943,-5e-6 -5.56917,10.428302 z m 0,-13.503575 c 0,0 -1.03415,-21.293428 2e-5,-25.152987 1.05835,3.949838 -2e-5,25.152987 -2e-5,25.152987 z"/>
    <path id="path1" d="m 179.1996,80.23711 -23.50673,-22.161433 -11.89541,-0.252541 -1.7095,2.960941 6.24622,10.037233 z"/>
    <path id="path2" d="m 136.06147,60.565264 -2.35022,-4.0707 2.35022,-4.0707 h 4.70044 l 2.35022,4.0707 -2.35022,4.0707 z"/>
    <path id="path3" d="m 97.623581,32.953963 23.506609,22.161143 11.89559,0.252829 1.70971,-2.961313 -6.24658,-10.037193 z m 11.694439,6.75179 c 0,0 18.95774,9.751097 21.78313,12.576495 -3.94984,-1.058354 -21.78313,-12.576495 -21.78313,-12.576495 z"/>
    <path id="path4" d="m 97.543424,80.098037 30.945726,-9.276717 6.16641,-10.175464 -1.7095,-2.96094 -11.81561,0.390772 z"/>
    <path id="path5" d="m 179.27982,33.092663 -30.94541,9.276758 -6.16674,10.175476 1.70972,2.961315 11.81576,-0.391114 z m -11.69443,6.751793 c 0,0 -17.92356,11.54234 -21.78312,12.576508 2.89148,-2.891489 21.78312,-12.576508 21.78312,-12.576508 z"/>
    <path id="path6" d="m 138.49199,9.4512381 -7.43902,31.4381339 5.729,10.428005 3.419,10e-7 5.5694,-10.427996 z"/>
  </g>
</svg>
